<svg id="visual" viewBox="0 0 900 600" width="900" height="600" xmlns="http://www.w3.org/2000/svg" xmlns:xlink="http://www.w3.org/1999/xlink" version="1.1"><rect x="0" y="0" width="900" height="600" fill="#00060b"></rect><g fill="none" stroke="#211e49" stroke-width="2"><circle r="16" cx="95" cy="500"></circle><circle r="2" cx="789" cy="377"></circle><circle r="2" cx="761" cy="26"></circle><circle r="1" cx="268" cy="389"></circle><circle r="5" cx="469" cy="157"></circle><circle r="4" cx="875" cy="234"></circle><circle r="11" cx="142" cy="450"></circle><circle r="11" cx="82" cy="100"></circle><circle r="13" cx="70" cy="545"></circle><circle r="3" cx="716" cy="294"></circle><circle r="12" cx="191" cy="33"></circle><circle r="1" cx="865" cy="68"></circle><circle r="4" cx="554" cy="69"></circle><circle r="8" cx="703" cy="371"></circle><circle r="9" cx="726" cy="249"></circle><circle r="1" cx="822" cy="186"></circle><circle r="14" cx="475" cy="465"></circle><circle r="14" cx="277" cy="472"></circle><circle r="7" cx="849" cy="264"></circle><circle r="2" cx="879" cy="355"></circle><circle r="6" cx="868" cy="492"></circle><circle r="2" cx="570" cy="552"></circle><circle r="4" cx="533" cy="39"></circle><circle r="12" cx="783" cy="441"></circle><circle r="3" cx="118" cy="161"></circle><circle r="13" cx="821" cy="508"></circle><circle r="10" cx="337" cy="53"></circle><circle r="14" cx="121" cy="207"></circle><circle r="13" cx="434" cy="542"></circle><circle r="3" cx="402" cy="365"></circle><circle r="14" cx="74" cy="293"></circle><circle r="1" cx="362" cy="481"></circle><circle r="7" cx="604" cy="573"></circle><circle r="8" cx="627" cy="465"></circle><circle r="5" cx="419" cy="151"></circle><circle r="1" cx="25" cy="450"></circle><circle r="14" cx="707" cy="72"></circle><circle r="5" cx="678" cy="186"></circle><circle r="6" cx="558" cy="286"></circle><circle r="13" cx="234" cy="363"></circle><circle r="12" cx="806" cy="35"></circle><circle r="11" cx="662" cy="431"></circle><circle r="5" cx="32" cy="549"></circle><circle r="13" cx="780" cy="112"></circle><circle r="5" cx="266" cy="131"></circle><circle r="10" cx="34" cy="219"></circle><circle r="11" cx="794" cy="77"></circle><circle r="12" cx="594" cy="221"></circle><circle r="6" cx="237" cy="412"></circle><circle r="6" cx="688" cy="255"></circle><circle r="11" cx="192" cy="487"></circle><circle r="14" cx="842" cy="300"></circle><circle r="3" cx="402" cy="57"></circle><circle r="4" cx="722" cy="338"></circle><circle r="12" cx="770" cy="290"></circle></g></svg>